<?xml version="1.0" encoding="UTF-8" standalone="no"?>
<svg
   xmlns:dc="http://purl.org/dc/elements/1.1/"
   xmlns:cc="http://creativecommons.org/ns#"
   xmlns:rdf="http://www.w3.org/1999/02/22-rdf-syntax-ns#"
   xmlns:svg="http://www.w3.org/2000/svg"
   xmlns="http://www.w3.org/2000/svg"
   version="1.1"
   id="svg2"
   viewBox="0 0 96.000003 96.000003"
   height="96"
   width="96">
  <defs
     id="defs4" />
  <metadata
     id="metadata7">
    <rdf:RDF>
      <cc:Work
         rdf:about="">
        <dc:format>image/svg+xml</dc:format>
        <dc:type
           rdf:resource="http://purl.org/dc/dcmitype/StillImage" />
        <dc:title></dc:title>
      </cc:Work>
    </rdf:RDF>
  </metadata>
  <g
     transform="translate(0,-956.36218)"
     id="layer1">
    <path
       id="path7279"
       d="m 1.6884358,1049.4159 c -0.89162449,-3.7525 0.889958,-6.948 3.0698865,-5.5062 1.1100488,0.7341 1.5853957,3.2363 1.0460509,5.5062 -0.2664055,1.1212 -0.7365466,1.4532 -2.0579688,1.4532 -1.3214218,0 -1.791563,-0.332 -2.0579686,-1.4532 z m 3.1055411,-2.1584 c 0.1547713,-2.2333 0.032314,-2.5708 -0.8673582,-2.3905 -1.0885423,0.2182 -1.716448,2.8541 -1.0903896,4.5776 0.6221162,1.7124 1.7769086,0.4224 1.9577478,-2.1871 z m 3.03899,2.4668 c -0.8379898,-1.654 -0.7763653,-3.8888 0.1438886,-5.2182 1.7734856,-2.5619 4.8352175,0.7417 3.9504535,4.2625 -0.568849,2.2638 -3.1288585,2.8612 -4.0943421,0.9557 z m 2.8287081,-0.9275 c 0.707717,-1.9662 0.11848,-4.1446 -1.0564455,-3.9055 -1.0846451,0.2206 -1.4821885,1.7916 -0.9839853,3.8883 0.4481435,1.8862 1.3649856,1.8938 2.0404308,0.017 z m 2.915069,0.5461 c -0.784888,-2.1806 -0.732983,-2.8554 0.344672,-4.4807 2.021802,-3.0489 5.212757,0.2014 3.94826,4.0218 -0.798524,2.4126 -3.486314,2.6999 -4.292932,0.4589 z m 3.220223,-0.5633 c 0.505863,-2.129 0.09598,-3.6686 -1.038088,-3.8994 -1.26921,-0.2581 -1.940573,2.3513 -1.054761,4.0996 0.858286,1.6941 1.661017,1.6173 2.092849,-0.2002 z m 2.816871,0.6363 c -0.89165,-3.7527 0.890074,-6.9483 3.069887,-5.506 1.217238,0.8054 1.673444,4.8331 0.689307,6.0856 -1.127697,1.4353 -3.362304,1.0908 -3.759194,-0.5796 z m 2.925327,-1.9487 c 0,-1.7848 -0.254319,-2.4356 -1.011918,-2.5898 -0.824305,-0.1677 -1.011918,0.2365 -1.011918,2.1804 0,1.3124 0.178893,2.5751 0.397539,2.8061 0.887988,0.9379 1.626297,-0.15 1.626297,-2.3967 z m 3.613993,2.9975 c 0.885167,-0.3774 0.988296,-5.7036 0.110433,-5.7036 -0.336801,0 -0.451548,-0.2748 -0.254994,-0.6108 0.196556,-0.3359 0.732326,-0.6108 1.190604,-0.6108 0.613271,0 0.833232,0.7982 0.833232,3.0237 0,2.2353 0.263838,3.186 1.011919,3.6462 0.804972,0.4952 0.538899,0.6165 -1.301038,0.5929 -1.272125,-0.016 -1.987696,-0.1683 -1.590156,-0.3376 z m 5.387599,-0.7404 c -2.089628,-4.1244 1.428855,-8.4365 3.784758,-4.6385 1.39217,2.2443 0.480151,5.4061 -1.634766,5.6673 -1.06098,0.131 -1.72284,-0.1858 -2.149992,-1.0288 z m 2.881126,-0.7445 c 0.885812,-1.7483 0.214451,-4.3577 -1.054763,-4.0996 -1.134059,0.2308 -1.543948,1.7704 -1.038085,3.8994 0.431832,1.8175 1.234562,1.8943 2.092848,0.2002 z m 3.147753,1.2721 c -0.706204,-1.207 -0.538801,-4.7377 0.273662,-5.7717 2.001675,-2.5477 4.902634,0.8736 3.734172,4.4038 -0.591161,1.7861 -3.235171,2.6886 -4.007834,1.3679 z m 2.935121,-1.4723 c 0.498205,-2.0967 0.100659,-3.6677 -0.983986,-3.8883 -1.174926,-0.2391 -1.764162,1.9393 -1.056447,3.9055 0.675451,1.8766 1.592288,1.869 2.040433,-0.017 z m 3.5738,1.6851 c 1.122283,-0.4784 0.958581,-5.7036 -0.178683,-5.7036 -0.495818,0 -0.740664,-0.2748 -0.544112,-0.6108 0.196552,-0.3359 0.862429,-0.6108 1.479724,-0.6108 0.973094,0 1.12235,0.4408 1.12235,3.3147 0,2.6431 0.20499,3.3711 1.011916,3.5939 0.556558,0.1536 -0.02893,0.2895 -1.301035,0.3019 -1.272126,0.012 -1.987698,-0.116 -1.59016,-0.2853 z m 6.071507,-0.2553 c 1.416788,-0.8717 1.441071,-5.4483 0.02893,-5.4483 -0.732153,0 -0.815851,-0.1765 -0.327984,-0.6918 1.368776,-1.4459 2.467467,-0.081 2.467467,3.065 0,1.8462 0.281243,3.1421 0.722801,3.3304 0.397538,0.1693 -0.318034,0.3213 -1.59016,0.3376 -1.839934,0.023 -2.106004,-0.098 -1.301033,-0.5929 z m 5.040886,-0.9193 c -1.057107,-2.9369 0.905778,-6.4592 3.10319,-5.5685 1.222957,0.4957 1.841916,3.2482 1.180177,5.2481 -0.782026,2.3636 -3.475468,2.565 -4.283367,0.3204 z m 3.23921,-0.5105 c 0.505867,-2.129 0.09597,-3.6686 -1.038091,-3.8994 -1.269208,-0.2581 -1.940569,2.3513 -1.054757,4.0996 0.858286,1.6941 1.661017,1.6173 2.092848,-0.2002 z m 3.573804,1.6851 c 1.122283,-0.4784 0.958581,-5.7036 -0.178683,-5.7036 -0.49582,0 -0.740672,-0.2748 -0.544114,-0.6108 0.196552,-0.3359 0.862431,-0.6108 1.479725,-0.6108 0.973094,0 1.122351,0.4408 1.122351,3.3147 0,2.6431 0.204984,3.3711 1.011914,3.5939 0.55656,0.1536 -0.02893,0.2895 -1.301033,0.3019 -1.272126,0.012 -1.9877,-0.116 -1.59016,-0.2853 z m 5.782388,0 c 0.885171,-0.3774 0.988298,-5.7036 0.110436,-5.7036 -0.336803,0 -0.451551,-0.2748 -0.254993,-0.6108 0.196552,-0.3359 0.732325,-0.6108 1.190605,-0.6108 0.613266,0 0.833231,0.7982 0.833231,3.0237 0,2.2353 0.263837,3.186 1.011914,3.6462 0.804977,0.4952 0.538907,0.6165 -1.301033,0.5929 -1.272126,-0.016 -1.987699,-0.1683 -1.59016,-0.3376 z m 6.071507,-0.2553 c 1.354553,-0.8334 1.448095,-5.4483 0.110437,-5.4483 -0.495818,0 -0.74067,-0.2748 -0.544113,-0.6108 0.196552,-0.3359 0.86243,-0.6108 1.479724,-0.6108 0.972842,0 1.122351,0.4407 1.122351,3.3085 0,2.0753 0.269413,3.4233 0.722795,3.6167 0.397545,0.1693 -0.318028,0.3213 -1.590153,0.3376 -1.839941,0.023 -2.106011,-0.098 -1.301041,-0.5929 z m 5.344974,0.043 c -0.70621,-1.2069 -0.538801,-4.7376 0.273663,-5.7716 2.001674,-2.5477 4.902633,0.8735 3.734171,4.4037 -0.591154,1.7861 -3.235171,2.6886 -4.007834,1.3679 z m 2.935122,-1.4723 c 0.498205,-2.0967 0.100658,-3.6676 -0.983986,-3.8882 -1.174926,-0.2391 -1.764162,1.9393 -1.056447,3.9055 0.675444,1.8765 1.592287,1.8689 2.040433,-0.017 z m 2.816871,0.6363 c -0.891622,-3.7525 0.889957,-6.948 3.069884,-5.5062 1.110052,0.7342 1.585398,3.2363 1.046054,5.5062 -0.266409,1.1213 -0.73655,1.4533 -2.057969,1.4533 -1.321419,0 -1.791566,-0.332 -2.057969,-1.4532 z m 3.103134,-2.1063 c 0.155296,-2.2258 0.0272,-2.5484 -1.011914,-2.5484 -0.993904,0 -1.189728,0.3853 -1.189728,2.3414 0,4.1273 1.915546,4.3074 2.201642,0.207 z m 3.436182,3.1551 c 0.885171,-0.3773 0.988299,-5.7035 0.110436,-5.7035 -0.336803,0 -0.45155,-0.2749 -0.254992,-0.6108 0.196551,-0.336 0.732324,-0.6108 1.190604,-0.6108 0.613266,0 0.833231,0.7982 0.833231,3.0236 0,2.2354 0.263838,3.186 1.011916,3.6463 0.804975,0.4952 0.538906,0.6164 -1.301035,0.5928 -1.272125,-0.016 -1.987698,-0.1682 -1.59016,-0.3376 z M 2.0116883,1038.0424 c 0,-0.336 0.2602074,-0.6108 0.5782388,-0.6108 0.3180313,0 0.5782384,-1.0995 0.5782384,-2.4432 0,-1.8056 -0.235245,-2.4432 -0.9014834,-2.4432 -0.4958168,0 -0.7406676,-0.2748 -0.5441133,-0.6108 0.1965545,-0.336 0.8624295,-0.6107 1.4797224,-0.6107 0.9613296,0 1.122352,0.4381 1.122352,3.0539 0,2.3074 0.2120209,3.054 0.8673582,3.054 0.4770473,0 0.8673582,0.2748 0.8673582,0.6108 0,0.3359 -0.9107258,0.6108 -2.0238358,0.6108 -1.1131091,0 -2.0238355,-0.2749 -2.0238355,-0.6108 z m 5.7823876,0 c 0,-0.336 0.3903115,-0.6108 0.8673582,-0.6108 0.6264254,0 0.8673587,-0.6787 0.8673587,-2.4432 0,-1.7646 -0.2409333,-2.4432 -0.8673587,-2.4432 -0.4770467,0 -0.8673582,-0.2748 -0.8673582,-0.6108 0,-0.336 0.650519,-0.6107 1.445597,-0.6107 1.3492231,0 1.4455971,0.2036 1.4455971,3.0539 0,1.6797 0.260207,3.054 0.578238,3.054 0.318031,0 0.57824,0.2748 0.57824,0.6108 0,0.3359 -0.910726,0.6108 -2.0238361,0.6108 -1.1131095,0 -2.023836,-0.2749 -2.023836,-0.6108 z m 6.5051861,-0.2395 c 1.331909,-1.0679 1.41991,-5.2577 0.110434,-5.2577 -0.495816,0 -0.740667,-0.2748 -0.544113,-0.6108 0.196555,-0.336 0.862429,-0.6107 1.479723,-0.6107 0.961329,0 1.122352,0.4381 1.122352,3.0539 0,1.6797 0.260207,3.054 0.578238,3.054 0.318032,0 0.578239,0.2748 0.578239,0.6108 0,0.3359 -0.975777,0.602 -2.168396,0.5914 -1.926877,-0.017 -2.055686,-0.1098 -1.156477,-0.8309 z m 5.637829,0.2395 c 0,-0.336 0.260207,-0.6108 0.578238,-0.6108 0.318032,0 0.578239,-1.0995 0.578239,-2.4432 0,-1.8056 -0.235245,-2.4432 -0.901484,-2.4432 -0.495816,0 -0.740668,-0.2748 -0.544113,-0.6108 0.196554,-0.336 0.86243,-0.6107 1.479722,-0.6107 0.949711,0 1.122353,0.4359 1.122353,2.8338 0,1.9828 0.303958,3.0777 1.011917,3.6454 0.89921,0.7211 0.770401,0.8136 -1.156477,0.8309 -1.192618,0.01 -2.168395,-0.2555 -2.168395,-0.5914 z m 5.782387,0 c 0,-0.336 0.260207,-0.6108 0.57824,-0.6108 0.318031,0 0.578238,-1.0995 0.578238,-2.4432 0,-1.3438 -0.260207,-2.4432 -0.578238,-2.4432 -0.318033,0 -0.57824,-0.2748 -0.57824,-0.6108 0,-0.336 0.520416,-0.6107 1.156478,-0.6107 1.002281,0 1.156477,0.4071 1.156477,3.0539 0,2.3074 0.212021,3.054 0.867359,3.054 0.477048,0 0.867358,0.2748 0.867358,0.6108 0,0.3359 -0.910726,0.6108 -2.023836,0.6108 -1.113109,0 -2.023836,-0.2749 -2.023836,-0.6108 z m 5.802733,-0.5707 c -1.46008,-2.8817 -0.112777,-6.4189 2.305711,-6.0533 3.004653,0.4541 2.753891,7.2348 -0.267562,7.2348 -0.831454,0 -1.692423,-0.4991 -2.038149,-1.1815 z m 3.449088,-2.3348 c 0,-0.4618 -0.278356,-1.389 -0.618564,-2.0604 -0.824127,-1.6267 -2.27263,-0.4382 -2.27263,1.8645 0,2.3142 1.201312,3.4767 2.160664,2.0909 0.401795,-0.5805 0.73053,-1.4332 0.73053,-1.895 z m 2.577829,2.864 c -0.629568,-1.0759 -0.510608,-5.4404 0.167821,-6.1571 0.324721,-0.3429 1.200641,-0.5316 1.946491,-0.4192 3.03184,0.4571 2.884551,6.7353 -0.166828,7.1109 -0.838696,0.1032 -1.715066,-0.1372 -1.947484,-0.5346 z m 3.20456,-3.0125 c 0,-0.9255 -0.385999,-2.0212 -0.857774,-2.4348 -0.710922,-0.6232 -0.955966,-0.4791 -1.431288,0.8414 -0.379189,1.0535 -0.379189,2.1333 0,3.1867 0.475322,1.3207 0.720366,1.4647 1.431288,0.8415 0.471775,-0.4137 0.857774,-1.5092 0.857774,-2.4348 z m 2.891193,3.054 c 0,-0.336 0.260204,-0.6108 0.578239,-0.6108 0.318028,0 0.578239,-1.0995 0.578239,-2.4432 0,-1.8056 -0.235243,-2.4432 -0.901485,-2.4432 -0.495818,0 -0.740664,-0.2748 -0.544112,-0.6108 0.196552,-0.336 0.862429,-0.6107 1.479724,-0.6107 0.949711,0 1.12235,0.4359 1.12235,2.8338 0,1.9828 0.30396,3.0777 1.011916,3.6454 0.899208,0.7211 0.770404,0.8136 -1.156478,0.8309 -1.192615,0.01 -2.168393,-0.2555 -2.168393,-0.5914 z m 5.782388,0 c 0,-0.336 0.39031,-0.6108 0.867358,-0.6108 0.626423,0 0.867359,-0.6787 0.867359,-2.4432 0,-1.7646 -0.240936,-2.4432 -0.867359,-2.4432 -0.477048,0 -0.867358,-0.2748 -0.867358,-0.6108 0,-0.336 0.650521,-0.6107 1.445598,-0.6107 1.349224,0 1.445596,0.2036 1.445596,3.0539 0,1.6797 0.260204,3.054 0.578239,3.054 0.318029,0 0.578239,0.2748 0.578239,0.6108 0,0.3359 -0.910725,0.6108 -2.023836,0.6108 -1.113111,0 -2.023836,-0.2749 -2.023836,-0.6108 z m 5.74123,-1.0283 c -0.384457,-1.0668 -0.431258,-2.4164 -0.123204,-3.5527 0.406982,-1.5012 0.803854,-1.8323 2.195914,-1.8323 2.088508,0 3.148113,2.3607 2.261665,5.039 -0.821395,2.4817 -3.487962,2.6945 -4.334375,0.346 z m 3.510592,-2.0257 c 0,-0.9255 -0.383828,-2.0193 -0.852945,-2.4306 -0.70312,-0.6164 -0.973353,-0.4686 -1.538417,0.8415 -0.935772,2.1694 0.21603,5.1789 1.538417,4.0196 0.469117,-0.4112 0.852945,-1.5049 0.852945,-2.4305 z m 2.891195,3.054 c 0,-0.336 0.260206,-0.6108 0.57824,-0.6108 0.318029,0 0.578239,-1.0995 0.578239,-2.4432 0,-1.8056 -0.235243,-2.4432 -0.901484,-2.4432 -0.49582,0 -0.740672,-0.2748 -0.544114,-0.6108 0.196552,-0.336 0.862431,-0.6107 1.479725,-0.6107 0.949712,0 1.122351,0.4359 1.122351,2.8338 0,1.9828 0.303959,3.0777 1.011914,3.6454 0.89921,0.7211 0.7704,0.8136 -1.156477,0.8309 -1.192615,0.01 -2.168394,-0.2555 -2.168394,-0.5914 z m 5.815881,-0.2628 c -0.98414,-1.2526 -0.527934,-5.2803 0.689304,-6.0856 2.179816,-1.4422 3.961537,1.7533 3.06989,5.506 -0.396891,1.6704 -2.631495,2.0149 -3.759194,0.5796 z m 2.753885,-2.1329 c 0.266421,-2.8701 -0.250996,-4.0577 -1.348619,-3.0955 -0.870929,0.7635 -1.194374,4.3242 -0.46298,5.0968 0.80613,0.8514 1.631417,-0.06 1.811599,-2.0013 z m 3.015353,1.825 c -1.460072,-2.8817 -0.112773,-6.4189 2.305708,-6.0533 3.004659,0.4541 2.753891,7.2348 -0.267562,7.2348 -0.831449,0 -1.692418,-0.4991 -2.038146,-1.1815 z m 3.449091,-2.3348 c 0,-0.4618 -0.27835,-1.389 -0.618564,-2.0604 -0.824127,-1.6267 -2.272629,-0.4382 -2.272629,1.8645 0,2.3142 1.201312,3.4767 2.160664,2.0909 0.401788,-0.5805 0.730529,-1.4332 0.730529,-1.895 z m 2.577829,2.864 c -0.629568,-1.0759 -0.510608,-5.4404 0.167822,-6.1571 0.32472,-0.3429 1.20064,-0.5316 1.946491,-0.4192 3.031846,0.4571 2.884551,6.7353 -0.166829,7.1109 -0.838702,0.1032 -1.715066,-0.1372 -1.947484,-0.5346 z m 3.20456,-3.0125 c 0,-0.9255 -0.385998,-2.0212 -0.85778,-2.4348 -0.710916,-0.6232 -0.95596,-0.4791 -1.431282,0.8414 -0.379188,1.0535 -0.379188,2.1333 0,3.1867 0.475322,1.3207 0.720366,1.4647 1.431282,0.8415 0.471782,-0.4137 0.85778,-1.5092 0.85778,-2.4348 z m 2.891193,3.054 c 0,-0.336 0.260205,-0.6108 0.57824,-0.6108 0.318028,0 0.578238,-1.0995 0.578238,-2.4432 0,-1.8056 -0.235242,-2.4432 -0.901485,-2.4432 -0.495817,0 -0.74067,-0.2748 -0.544112,-0.6108 0.196552,-0.336 0.86243,-0.6107 1.479724,-0.6107 0.949711,0 1.122351,0.4359 1.122351,2.8338 0,1.9828 0.30396,3.0777 1.011915,3.6454 0.899208,0.7211 0.770399,0.8136 -1.156478,0.8309 -1.192615,0.01 -2.168393,-0.2555 -2.168393,-0.5914 z m 5.898036,-0.1222 c -0.852197,-0.9001 -0.903588,-3.8198 -0.09531,-5.4152 0.674618,-1.3315 2.291541,-1.5489 3.333444,-0.4484 0.734754,0.7761 0.931688,4.0097 0.342903,5.6304 -0.413655,1.1387 -2.589683,1.2804 -3.581041,0.2332 z m 2.671729,-2.2735 c 0.101912,-1.0979 0.0338,-2.4132 -0.151403,-2.923 -0.490025,-1.3489 -2.057734,0.1628 -2.057734,1.9842 0,3.6254 1.885373,4.4267 2.209137,0.9388 z m -91.8361547,-9.8202 c 0,-0.336 0.2602074,-0.6108 0.5782388,-0.6108 0.3180313,0 0.5782384,-1.0994 0.5782384,-2.4431 0,-1.8057 -0.235245,-2.4432 -0.9014834,-2.4432 -0.4958168,0 -0.7406676,-0.275 -0.5441133,-0.6108 0.1965545,-0.336 0.8624295,-0.6108 1.4797224,-0.6108 0.9613296,0 1.122352,0.4381 1.122352,3.054 0,2.3074 0.2120209,3.0539 0.8673582,3.0539 0.4770473,0 0.8673582,0.2748 0.8673582,0.6108 0,0.3359 -0.9107258,0.6108 -2.0238358,0.6108 -1.1131091,0 -2.0238355,-0.2749 -2.0238355,-0.6108 z m 5.7823876,0 c 0,-0.336 0.3903115,-0.6108 0.8673582,-0.6108 0.6264254,0 0.8673587,-0.6786 0.8673587,-2.4431 0,-1.7646 -0.2409333,-2.4432 -0.8673587,-2.4432 -0.4770467,0 -0.8673582,-0.275 -0.8673582,-0.6108 0,-0.336 0.650519,-0.6108 1.445597,-0.6108 1.3492231,0 1.4455971,0.2035 1.4455971,3.054 0,1.6796 0.260207,3.0539 0.578238,3.0539 0.318031,0 0.57824,0.2748 0.57824,0.6108 0,0.3359 -0.910726,0.6108 -2.0238361,0.6108 -1.1131095,0 -2.023836,-0.2749 -2.023836,-0.6108 z m 5.7823871,0 c 0,-0.336 0.390312,-0.6108 0.867359,-0.6108 0.626425,0 0.867358,-0.6786 0.867358,-2.4431 0,-1.7646 -0.240933,-2.4432 -0.867358,-2.4432 -0.477047,0 -0.867359,-0.275 -0.867359,-0.6108 0,-0.336 0.650519,-0.6108 1.445598,-0.6108 1.349223,0 1.445597,0.2035 1.445597,3.054 0,1.6796 0.260207,3.0539 0.578238,3.0539 0.318032,0 0.578239,0.2748 0.578239,0.6108 0,0.3359 -0.910726,0.6108 -2.023836,0.6108 -1.113109,0 -2.023836,-0.2749 -2.023836,-0.6108 z m 6.476276,-0.1221 c -0.734757,-0.7761 -0.931686,-4.0098 -0.342903,-5.6305 0.413656,-1.1387 2.589686,-1.2803 3.581039,-0.2332 0.381639,0.4032 0.693888,1.7225 0.693888,2.9319 0,2.3583 -0.824477,3.6647 -2.312957,3.6647 -0.508849,0 -1.23743,-0.3299 -1.619067,-0.7329 z m 2.486426,-3.2456 c 0,-1.7572 -0.241429,-2.4348 -0.867359,-2.4348 -0.609888,0 -0.920853,0.786 -1.047572,2.6478 -0.155182,2.2801 -0.0347,2.6184 0.867359,2.4349 0.802336,-0.1632 1.047572,-0.7832 1.047572,-2.6479 z m 3.295961,3.2456 c -0.381637,-0.4033 -0.693886,-1.7225 -0.693886,-2.9318 0,-2.5156 0.832903,-3.6648 2.655857,-3.6648 1.437655,0 1.970053,1.0533 1.970053,3.8979 0,2.145 -0.867206,3.4316 -2.312955,3.4316 -0.508851,0 -1.237431,-0.3299 -1.619069,-0.7329 z m 2.664234,-3.0846 c -0.209554,-3.0594 -1.791671,-3.7106 -2.100204,-0.8646 -0.245727,2.2668 0.223167,3.4605 1.359258,3.4605 0.723285,0 0.880924,-0.5523 0.740946,-2.5959 z m 3.022851,2.636 c -1.46008,-2.8817 -0.112777,-6.4189 2.305711,-6.0534 3.004653,0.4542 2.753891,7.2349 -0.267562,7.2349 -0.831454,0 -1.692423,-0.4991 -2.038149,-1.1815 z m 3.198117,-1.5102 c 0.192123,-0.8086 0.04885,-2.0631 -0.318423,-2.788 -0.535162,-1.0563 -0.831936,-1.174 -1.494767,-0.5929 -0.843863,0.7398 -1.138726,3.7074 -0.441541,4.4438 0.817547,0.8636 1.920537,0.3436 2.254731,-1.0629 z m 3.286722,1.8414 c 1.306511,-1.0476 1.422263,-5.2576 0.144562,-5.2576 -0.477048,0 -0.867358,-0.275 -0.867358,-0.6108 0,-0.336 0.650521,-0.6108 1.445598,-0.6108 1.349224,0 1.445596,0.2035 1.445596,3.054 0,1.6796 0.260204,3.0539 0.57824,3.0539 0.318028,0 0.578238,0.2748 0.578238,0.6108 0,0.3359 -0.975777,0.6021 -2.168398,0.5913 -1.926877,-0.017 -2.055687,-0.1098 -1.156478,-0.8308 z m 5.753479,0.1174 c -0.734755,-0.7761 -0.931683,-4.0098 -0.342903,-5.6305 0.413655,-1.1387 2.589683,-1.2803 3.581041,-0.2332 0.381637,0.4032 0.693886,1.7225 0.693886,2.9319 0,2.3583 -0.824473,3.6647 -2.312955,3.6647 -0.508851,0 -1.237431,-0.3299 -1.619069,-0.7329 z m 2.664234,-3.0846 c -0.124443,-1.8167 -0.438129,-2.5958 -1.045165,-2.5958 -0.607037,0 -0.920724,0.7791 -1.045166,2.5958 -0.157195,2.2949 -0.03602,2.5959 1.045166,2.5959 1.081192,0 1.20236,-0.301 1.045165,-2.5959 z m 3.022848,2.636 c -1.4538,-2.8693 -0.112465,-6.4211 2.286082,-6.0534 2.856425,0.4381 2.556913,7.2349 -0.318811,7.2349 -0.761376,0 -1.634285,-0.5242 -1.967271,-1.1815 z m 3.054625,-1.3272 c 0.361777,-1.4613 -0.463535,-4.21 -1.26407,-4.21 -1.04091,0 -1.732435,4.1548 -0.847165,5.0899 0.766914,0.8101 1.799368,0.3797 2.111235,-0.8799 z m 2.666263,0.8696 c -0.384457,-1.0668 -0.431258,-2.4163 -0.123204,-3.5526 0.406982,-1.5013 0.803854,-1.8324 2.195914,-1.8324 2.088508,0 3.148113,2.3608 2.261665,5.039 -0.821395,2.4817 -3.487962,2.6945 -4.334375,0.346 z m 3.395562,-1.7773 c 0.23544,-2.5418 -1.257244,-3.9374 -2.206771,-2.0633 -0.904551,1.7853 -0.247289,4.3988 1.041423,4.141 0.630214,-0.126 1.054664,-0.8828 1.165348,-2.0777 z m 3.121873,2.6835 c -0.734755,-0.7761 -0.93169,-4.0098 -0.342903,-5.6305 0.413654,-1.1387 2.589685,-1.2803 3.581042,-0.2332 0.381637,0.4032 0.693886,1.7225 0.693886,2.9319 0,2.3583 -0.824478,3.6647 -2.312955,3.6647 -0.50885,0 -1.237431,-0.3299 -1.61907,-0.7329 z m 2.486428,-3.2456 c 0,-1.7572 -0.241435,-2.4348 -0.867358,-2.4348 -0.609892,0 -0.920852,0.786 -1.047571,2.6478 -0.155184,2.2801 -0.03466,2.6184 0.867358,2.4349 0.802336,-0.1632 1.047571,-0.7832 1.047571,-2.6479 z m 3.180314,3.3677 c 0,-0.336 0.260204,-0.6108 0.578239,-0.6108 0.318028,0 0.578238,-1.0994 0.578238,-2.4431 0,-1.3438 -0.26021,-2.4432 -0.578238,-2.4432 -0.318035,0 -0.578239,-0.275 -0.578239,-0.6108 0,-0.336 0.520415,-0.6108 1.156477,-0.6108 1.002281,0 1.156478,0.4071 1.156478,3.054 0,2.3074 0.212021,3.0539 0.867358,3.0539 0.477049,0 0.867359,0.2748 0.867359,0.6108 0,0.3359 -0.910725,0.6108 -2.023836,0.6108 -1.113111,0 -2.023836,-0.2749 -2.023836,-0.6108 z m 5.782388,0 c 0,-0.336 0.390309,-0.6108 0.867358,-0.6108 0.626423,0 0.867358,-0.6786 0.867358,-2.4431 0,-1.7646 -0.240935,-2.4432 -0.867358,-2.4432 -0.477049,0 -0.867358,-0.275 -0.867358,-0.6108 0,-0.336 0.65052,-0.6108 1.445597,-0.6108 1.349223,0 1.445597,0.2035 1.445597,3.054 0,1.6796 0.260204,3.0539 0.578238,3.0539 0.318028,0 0.57824,0.2748 0.57824,0.6108 0,0.3359 -0.910725,0.6108 -2.023836,0.6108 -1.113112,0 -2.023836,-0.2749 -2.023836,-0.6108 z m 5.891417,-1.1537 c -0.332504,-1.0076 -0.409294,-2.6031 -0.170628,-3.5458 0.349207,-1.3793 0.76174,-1.7138 2.113116,-1.7138 1.310773,0 1.801879,0.3685 2.23841,1.6796 0.824201,2.4756 -0.169974,4.9919 -2.064495,5.2255 -1.230997,0.1517 -1.624138,-0.154 -2.116403,-1.6455 z m 3.26041,-0.8867 c 0.283451,-1.5547 -0.384864,-4.0675 -1.081809,-4.0675 -0.849842,0 -1.686009,2.711 -1.307603,4.2395 0.389452,1.5731 2.093613,1.4505 2.389412,-0.172 z m 3.106836,1.9183 c -0.734756,-0.7761 -0.93169,-4.0098 -0.342904,-5.6305 0.413655,-1.1387 2.589683,-1.2803 3.581041,-0.2332 0.381638,0.4032 0.693886,1.7225 0.693886,2.9319 0,2.3583 -0.824479,3.6647 -2.312955,3.6647 -0.508851,0 -1.237431,-0.3299 -1.619068,-0.7329 z m 2.664233,-3.0846 c -0.124442,-1.8167 -0.438129,-2.5958 -1.045165,-2.5958 -0.607037,0 -0.920723,0.7791 -1.045166,2.5958 -0.157195,2.2949 -0.03602,2.5959 1.045166,2.5959 1.081192,0 1.20236,-0.301 1.045165,-2.5959 z m 3.002506,3.2067 c 0,-0.336 0.260205,-0.6108 0.57824,-0.6108 0.318028,0 0.578238,-1.0994 0.578238,-2.4431 0,-1.3438 -0.26021,-2.4432 -0.578238,-2.4432 -0.318035,0 -0.57824,-0.275 -0.57824,-0.6108 0,-0.336 0.520416,-0.6108 1.156478,-0.6108 1.002281,0 1.156477,0.4071 1.156477,3.054 0,2.3074 0.212021,3.0539 0.867359,3.0539 0.477049,0 0.867358,0.2748 0.867358,0.6108 0,0.3359 -0.910725,0.6108 -2.023836,0.6108 -1.113111,0 -2.023836,-0.2749 -2.023836,-0.6108 z m -88.93313,-12.3381 c -1.57693211,-1.6656 -0.3320509,-7.2074 1.6190684,-7.2074 1.1641276,0 2.3129552,2.0847 2.3129552,4.1971 0,2.4305 -0.8111657,3.7433 -2.3129552,3.7433 -0.5088501,0 -1.2374308,-0.3298 -1.6190684,-0.733 z m 2.6642337,-3.0845 c -0.2095544,-3.0594 -1.791672,-3.7106 -2.1002044,-0.8646 -0.2457271,2.2668 0.2231687,3.4605 1.359258,3.4605 0.7232853,0 0.8809245,-0.5523 0.7409464,-2.5959 z m 3.0025062,3.2067 c 0,-0.3359 0.3903115,-0.6108 0.8673582,-0.6108 0.6264254,0 0.8673587,-0.6786 0.8673587,-2.4432 0,-1.7645 -0.2409333,-2.4432 -0.8673587,-2.4432 -0.4770467,0 -0.8673582,-0.2748 -0.8673582,-0.6108 0,-0.3359 0.650519,-0.6108 1.445597,-0.6108 1.3492231,0 1.4455971,0.2037 1.4455971,3.054 0,1.6797 0.260207,3.054 0.578238,3.054 0.318031,0 0.57824,0.2749 0.57824,0.6108 0,0.3359 -0.910726,0.6108 -2.0238361,0.6108 -1.1131095,0 -2.023836,-0.2749 -2.023836,-0.6108 z m 6.0337321,-0.8914 c -1.145957,-1.8473 -0.647798,-4.9495 0.938881,-5.8464 1.428383,-0.8075 3.435685,1.1899 3.435685,3.4186 0,3.7723 -2.633831,5.2341 -4.374566,2.4278 z m 3.118095,-1.149 c 0.318073,-1.7446 -0.42088,-4.0676 -1.293935,-4.0676 -0.956817,0 -1.685195,2.6879 -1.182102,4.3623 0.44172,1.4701 2.19227,1.2617 2.476037,-0.2947 z m 2.991188,2.0404 c 0,-0.3359 0.260207,-0.6108 0.578238,-0.6108 0.318032,0 0.578239,-1.0995 0.578239,-2.4432 0,-1.7645 -0.240933,-2.4432 -0.867358,-2.4432 -0.477047,0 -0.867359,-0.2748 -0.867359,-0.6108 0,-0.3359 0.65052,-0.6108 1.445598,-0.6108 1.349224,0 1.445597,0.2037 1.445597,3.054 0,2.3075 0.21202,3.054 0.867358,3.054 0.477047,0 0.867359,0.2749 0.867359,0.6108 0,0.3359 -0.910726,0.6108 -2.023836,0.6108 -1.113111,0 -2.023836,-0.2749 -2.023836,-0.6108 z m 5.802732,-0.5706 c -1.64647,-3.2497 0.333964,-7.5823 2.822747,-6.1754 0.931544,0.5267 1.20458,1.2715 1.20458,3.286 0,1.4327 -0.312249,2.9347 -0.693887,3.3378 -1.041906,1.1007 -2.65882,0.8831 -3.33344,-0.4484 z m 2.759537,-2.6361 c -0.209554,-3.0594 -1.791671,-3.7106 -2.100204,-0.8646 -0.245727,2.2668 0.223167,3.4605 1.359258,3.4605 0.723285,0 0.880924,-0.5523 0.740946,-2.5959 z m 3.022851,2.6361 c -0.943671,-1.8625 -0.702577,-4.2059 0.571147,-5.5513 1.512225,-1.5974 3.204358,-0.7552 3.749401,1.8661 0.741201,3.5646 -2.835806,6.6156 -4.320548,3.6852 z m 3.144364,-1.2099 c 0.487873,-1.6237 -0.239752,-4.3275 -1.164594,-4.3275 -0.997272,0 -1.620998,2.1329 -1.173952,4.0143 0.420273,1.7688 1.8439,1.9595 2.338546,0.3132 z m 2.906799,1.7805 c -0.196552,-0.3359 0.04829,-0.6108 0.544112,-0.6108 0.666241,0 0.901485,-0.6376 0.901485,-2.4432 0,-1.7645 -0.240936,-2.4432 -0.867359,-2.4432 -0.477048,0 -0.867358,-0.2748 -0.867358,-0.6108 0,-0.3359 0.650521,-0.6108 1.445598,-0.6108 1.349224,0 1.445596,0.2037 1.445596,3.054 0,1.6797 0.260204,3.054 0.57824,3.054 0.318028,0 0.578238,0.2749 0.578238,0.6108 0,0.3359 -0.765268,0.6108 -1.700589,0.6108 -0.935328,0 -1.861411,-0.2749 -2.057963,-0.6108 z m 6.187155,-0.1222 c -1.57693,-1.6656 -0.332054,-7.2074 1.619069,-7.2074 1.164125,0 2.312955,2.0847 2.312955,4.1971 0,2.4305 -0.811168,3.7433 -2.312955,3.7433 -0.508851,0 -1.237431,-0.3298 -1.619069,-0.733 z m 2.486426,-3.2456 c 0,-1.757 -0.241429,-2.4348 -0.867357,-2.4348 -0.609893,0 -0.920853,0.786 -1.047572,2.648 -0.155184,2.2801 -0.03472,2.6183 0.867358,2.4348 0.802337,-0.1633 1.047571,-0.7831 1.047571,-2.648 z m 3.180314,3.3678 c 0,-0.3359 0.39031,-0.6108 0.867358,-0.6108 0.626423,0 0.867359,-0.6786 0.867359,-2.4432 0,-1.7645 -0.240936,-2.4432 -0.867359,-2.4432 -0.477048,0 -0.867358,-0.2748 -0.867358,-0.6108 0,-0.3359 0.650521,-0.6108 1.445598,-0.6108 1.349224,0 1.445596,0.2037 1.445596,3.054 0,1.6797 0.260204,3.054 0.578239,3.054 0.318029,0 0.578239,0.2749 0.578239,0.6108 0,0.3359 -0.910725,0.6108 -2.023836,0.6108 -1.113111,0 -2.023836,-0.2749 -2.023836,-0.6108 z m 5.782389,0 c 0,-0.3359 0.390309,-0.6108 0.867357,-0.6108 0.626423,0 0.867359,-0.6786 0.867359,-2.4432 0,-1.7645 -0.240936,-2.4432 -0.867359,-2.4432 -0.477048,0 -0.867357,-0.2748 -0.867357,-0.6108 0,-0.3359 0.65052,-0.6108 1.445596,-0.6108 1.349224,0 1.445597,0.2037 1.445597,3.054 0,1.6797 0.260204,3.054 0.57824,3.054 0.31803,0 0.57824,0.2749 0.57824,0.6108 0,0.3359 -0.910727,0.6108 -2.023838,0.6108 -1.113111,0 -2.023835,-0.2749 -2.023835,-0.6108 z m 6.476276,-0.1222 c -0.381637,-0.4031 -0.693886,-1.9051 -0.693886,-3.3378 0,-1.9504 0.281075,-2.7639 1.118466,-3.2372 1.446498,-0.8178 1.523788,-0.8081 2.598781,0.3274 1.071021,1.1314 1.210736,5.1956 0.214778,6.2476 -0.381638,0.4032 -1.110218,0.733 -1.619069,0.733 -0.50885,0 -1.237431,-0.3298 -1.61907,-0.733 z m 2.486428,-3.2456 c 0,-1.757 -0.241435,-2.4348 -0.867358,-2.4348 -0.609892,0 -0.920852,0.786 -1.047571,2.648 -0.155184,2.2801 -0.03466,2.6183 0.867358,2.4348 0.802336,-0.1633 1.047571,-0.7831 1.047571,-2.648 z m 3.180314,3.3678 c 0,-0.3359 0.260204,-0.6108 0.578239,-0.6108 0.318028,0 0.578238,-1.0995 0.578238,-2.4432 0,-1.3438 -0.26021,-2.4432 -0.578238,-2.4432 -0.318035,0 -0.578239,-0.2748 -0.578239,-0.6108 0,-0.3359 0.520415,-0.6108 1.156477,-0.6108 1.002281,0 1.156478,0.4072 1.156478,3.054 0,2.3075 0.212021,3.054 0.867358,3.054 0.477049,0 0.867359,0.2749 0.867359,0.6108 0,0.3359 -0.910725,0.6108 -2.023836,0.6108 -1.113111,0 -2.023836,-0.2749 -2.023836,-0.6108 z m 5.782388,0 c 0,-0.3359 0.390309,-0.6108 0.867358,-0.6108 0.626423,0 0.867358,-0.6786 0.867358,-2.4432 0,-1.7645 -0.240935,-2.4432 -0.867358,-2.4432 -0.477049,0 -0.867358,-0.2748 -0.867358,-0.6108 0,-0.3359 0.65052,-0.6108 1.445597,-0.6108 1.349223,0 1.445597,0.2037 1.445597,3.054 0,1.6797 0.260204,3.054 0.578238,3.054 0.318028,0 0.57824,0.2749 0.57824,0.6108 0,0.3359 -0.910725,0.6108 -2.023836,0.6108 -1.113112,0 -2.023836,-0.2749 -2.023836,-0.6108 z m 6.318278,-0.3593 c -1.097568,-1.397 -0.859136,-5.21 0.385905,-6.1716 2.337609,-1.8056 4.748375,2.7177 3.140174,5.8919 -0.755677,1.4915 -2.467319,1.6273 -3.526079,0.2797 z m 2.833549,-1.6811 c 0.283451,-1.5548 -0.384864,-4.0676 -1.081809,-4.0676 -0.849842,0 -1.686009,2.7111 -1.307603,4.2396 0.389452,1.5732 2.093613,1.4505 2.389412,-0.172 z m 3.106836,1.9182 c -1.576936,-1.6656 -0.332055,-7.2074 1.619068,-7.2074 1.164126,0 2.312955,2.0847 2.312955,4.1971 0,2.4305 -0.811162,3.7433 -2.312955,3.7433 -0.508851,0 -1.237431,-0.3298 -1.619068,-0.733 z m 2.486426,-3.2456 c 0,-1.757 -0.241436,-2.4348 -0.867358,-2.4348 -0.609892,0 -0.920853,0.786 -1.047572,2.648 -0.155183,2.2801 -0.03472,2.6183 0.867359,2.4348 0.802336,-0.1633 1.047571,-0.7831 1.047571,-2.648 z m 3.180313,3.3678 c 0,-0.3359 0.260205,-0.6108 0.57824,-0.6108 0.318028,0 0.578238,-1.0995 0.578238,-2.4432 0,-1.3438 -0.26021,-2.4432 -0.578238,-2.4432 -0.318035,0 -0.57824,-0.2748 -0.57824,-0.6108 0,-0.3359 0.520416,-0.6108 1.156478,-0.6108 1.002281,0 1.156477,0.4072 1.156477,3.054 0,2.3075 0.212021,3.054 0.867359,3.054 0.477049,0 0.867358,0.2749 0.867358,0.6108 0,0.3359 -0.910725,0.6108 -2.023836,0.6108 -1.113111,0 -2.023836,-0.2749 -2.023836,-0.6108 z M 2.0116883,1001.3947 c 0,-0.3359 0.2602074,-0.6108 0.5782388,-0.6108 0.8461324,0 0.7119902,-4.72726 -0.1445597,-5.09439 -0.5439349,-0.23313 -0.5081624,-0.47014 0.1445597,-0.95774 1.5002768,-1.12076 1.7347161,-0.75684 1.7347161,2.69272 0,2.57891 0.2015071,3.35941 0.8673582,3.35941 0.4770473,0 0.8673582,0.2749 0.8673582,0.6108 0,0.3359 -0.9107258,0.6107 -2.0238358,0.6107 -1.1131091,0 -2.0238355,-0.2748 -2.0238355,-0.6107 z m 6.1416926,-0.3185 c -2.1806825,-2.3035 -0.040665,-8.25376 2.3867601,-6.63637 1.513946,1.00875 2.073907,3.61224 1.194008,5.55141 -0.918393,2.02406 -2.2964026,2.44156 -3.5807681,1.08496 z m 2.7374321,-1.68503 c 0.695899,-2.92879 -1.2304079,-5.71787 -2.1675138,-3.13831 -0.4664324,1.28394 -0.4469233,3.61527 0.03451,4.12384 0.7905196,0.835 1.8126451,0.3627 2.1330061,-0.98553 z m 3.405462,1.85083 c -1.647086,-2.17469 -1.184298,-6.18176 0.807172,-6.98899 1.29061,-0.52314 3.098927,1.87618 3.098927,4.11172 0,2.81497 -2.537552,4.68417 -3.906099,2.87727 z m 2.501697,-1.94103 c 0.447047,-1.88147 -0.176679,-4.01426 -1.173954,-4.01426 -0.939095,0 -1.546638,2.30432 -1.091865,4.14128 0.447,1.80561 1.824976,1.72831 2.265819,-0.12702 z m 3.254767,1.97153 c -0.381639,-0.4031 -0.693888,-1.90516 -0.693888,-3.33788 0,-1.95029 0.281076,-2.76383 1.118464,-3.23721 1.446498,-0.81774 1.523788,-0.80799 2.598786,0.32753 1.036869,1.09524 1.194994,4.05251 0.310077,5.79916 -0.674619,1.3314 -2.291533,1.549 -3.333439,0.4484 z m 2.486426,-3.24557 c 0,-1.75709 -0.241429,-2.43482 -0.867359,-2.43482 -0.609888,0 -0.920853,0.78601 -1.047572,2.64792 -0.155182,2.28017 -0.0347,2.61837 0.867359,2.43487 0.802336,-0.1633 1.047572,-0.7832 1.047572,-2.64797 z m 3.180313,3.36777 c 0,-0.3359 0.260207,-0.6108 0.57824,-0.6108 0.318031,0 0.578238,-1.09947 0.578238,-2.4432 0,-1.34376 -0.260207,-2.44319 -0.578238,-2.44319 -1.046257,0 -0.602915,-1.0723 0.578238,-1.39857 1.051163,-0.29037 1.156477,-0.0188 1.156477,2.98274 0,2.52812 0.203329,3.30222 0.867359,3.30222 0.477048,0 0.867358,0.2749 0.867358,0.6108 0,0.3359 -0.910726,0.6107 -2.023836,0.6107 -1.113109,0 -2.023836,-0.2748 -2.023836,-0.6107 z m 6.141693,-0.3185 c -1.268559,-1.34008 -1.182167,-4.1177 0.182708,-5.87452 0.895214,-1.1523 1.323888,-1.31049 2.133978,-0.78752 1.57437,1.01636 2.160368,3.60179 1.264082,5.57708 -0.918391,2.02406 -2.2964,2.44156 -3.580768,1.08496 z m 2.805404,-1.46198 c 0.487873,-1.62371 -0.239752,-4.32751 -1.164594,-4.32751 -0.997272,0 -1.620998,2.13279 -1.173952,4.01426 0.420273,1.76883 1.8439,1.95953 2.338546,0.31325 z m 2.906799,1.78048 c -0.196552,-0.3359 0.04829,-0.6108 0.544112,-0.6108 0.681995,0 0.901485,-0.6646 0.901485,-2.72944 0,-2.1752 -0.176118,-2.65802 -0.867359,-2.37783 -0.477048,0.19337 -0.867358,0.0794 -0.867358,-0.25333 0,-0.68781 2.077539,-1.40326 2.56859,-0.88455 0.177431,0.18742 0.322604,1.66924 0.322604,3.29294 0,1.62371 0.260204,2.95221 0.57824,2.95221 0.318028,0 0.578238,0.2749 0.578238,0.6108 0,0.3359 -0.765268,0.6107 -1.700589,0.6107 -0.935328,0 -1.861411,-0.2748 -2.057963,-0.6107 z m 6.187155,-0.1222 c -0.381637,-0.4031 -0.693886,-1.90516 -0.693886,-3.33788 0,-1.95029 0.281076,-2.76383 1.118464,-3.23721 1.446498,-0.81774 1.523788,-0.80799 2.598781,0.32753 1.03687,1.09524 1.194996,4.05251 0.310078,5.79916 -0.674618,1.3314 -2.291528,1.549 -3.333437,0.4484 z m 2.486426,-3.2881 c 0,-1.71928 -0.244007,-2.39229 -0.867357,-2.39229 -0.920581,0 -1.49568,2.76625 -0.910175,4.37799 0.626027,1.7233 1.777532,0.4369 1.777532,-1.9857 z m 3.180314,3.4103 c 0,-0.3359 0.39031,-0.6108 0.867358,-0.6108 0.626423,0 0.867359,-0.6787 0.867359,-2.4432 0,-1.76453 -0.240936,-2.44319 -0.867359,-2.44319 -1.254645,0 -1.066192,-1.0242 0.255634,-1.38932 1.562096,-0.4315 1.768202,-0.0441 1.768202,3.3235 0,1.62371 0.260204,2.95221 0.578239,2.95221 0.318029,0 0.578239,0.2749 0.578239,0.6108 0,0.3359 -0.910725,0.6107 -2.023836,0.6107 -1.113111,0 -2.023836,-0.2748 -2.023836,-0.6107 z m 6.502198,-0.1527 c -1.647083,-2.17469 -1.184301,-6.18176 0.807173,-6.98899 1.29061,-0.52314 3.098929,1.87618 3.098929,4.11172 0,2.81497 -2.537554,4.68417 -3.906102,2.87727 z m 2.501699,-1.94103 c 0.447049,-1.88147 -0.176679,-4.01426 -1.173951,-4.01426 -0.939097,0 -1.54664,2.30432 -1.091869,4.14128 0.446999,1.80561 1.824977,1.72831 2.26582,-0.12702 z m 3.13912,2.09373 c 0,-0.3359 0.260206,-0.6108 0.57824,-0.6108 0.318029,0 0.578239,-1.09947 0.578239,-2.4432 0,-1.76453 -0.240935,-2.44319 -0.867358,-2.44319 -0.47705,0 -0.867359,-0.27487 -0.867359,-0.6108 0,-0.33594 0.238924,-0.6108 0.530943,-0.6108 0.292026,0 0.94254,-0.16683 1.445598,-0.37074 0.767025,-0.31091 0.914654,0.18202 0.914654,3.05398 0,2.69465 0.192185,3.42475 0.901485,3.42475 0.495817,0 0.740664,0.2749 0.544112,0.6108 -0.196558,0.3359 -1.122641,0.6107 -2.057963,0.6107 -0.935328,0 -1.700591,-0.2748 -1.700591,-0.6107 z m 5.78239,0 c 0,-0.3359 0.260204,-0.6108 0.578239,-0.6108 0.318028,0 0.578238,-1.09947 0.578238,-2.4432 0,-1.34376 -0.26021,-2.44319 -0.578238,-2.44319 -1.046258,0 -0.60291,-1.0723 0.578238,-1.39857 1.051162,-0.29037 1.156478,-0.0188 1.156478,2.98274 0,2.52812 0.203324,3.30222 0.867358,3.30222 0.477049,0 0.867359,0.2749 0.867359,0.6108 0,0.3359 -0.910725,0.6107 -2.023836,0.6107 -1.113111,0 -2.023836,-0.2748 -2.023836,-0.6107 z m 6.112807,-0.3491 c -1.242611,-1.31252 -1.141606,-4.10212 0.211589,-5.84392 0.910392,-1.17183 1.315794,-1.31561 2.164044,-0.7675 1.678164,1.08438 2.254614,4.19206 1.117596,6.02512 -1.101238,1.7753 -2.194002,1.9588 -3.493229,0.5863 z m 2.83429,-1.43138 c 0.487873,-1.62371 -0.239753,-4.32751 -1.164596,-4.32751 -0.997271,0 -1.620998,2.13279 -1.17395,4.01426 0.420273,1.76883 1.8439,1.95953 2.338546,0.31325 z m 2.906799,1.78048 c -0.196559,-0.3359 0.04829,-0.6108 0.544111,-0.6108 0.681995,0 0.901485,-0.6646 0.901485,-2.72944 0,-2.1752 -0.176117,-2.65802 -0.867358,-2.37783 -0.477049,0.19337 -0.867359,0.0794 -0.867359,-0.25333 0,-0.68781 2.077534,-1.40326 2.568597,-0.88455 0.177424,0.18742 0.322598,1.66924 0.322598,3.29294 0,2.26661 0.209337,2.95221 0.901485,2.95221 0.495817,0 0.740663,0.2749 0.544111,0.6108 -0.196558,0.3359 -1.107281,0.6107 -2.023835,0.6107 -0.916553,0 -1.827284,-0.2748 -2.023835,-0.6107 z m 6.071506,0 c 0,-0.3359 0.260205,-0.6108 0.57824,-0.6108 0.318028,0 0.578238,-1.07004 0.578238,-2.37787 0,-1.69119 -0.292209,-2.50381 -1.01192,-2.81414 -0.928926,-0.40051 -0.917066,-0.47749 0.144562,-0.9386 1.928579,-0.83766 2.023836,-0.70723 2.023836,2.7712 0,2.63541 0.194269,3.35941 0.901484,3.35941 0.495818,0 0.740664,0.2749 0.544112,0.6108 -0.196557,0.3359 -1.122639,0.6107 -2.057962,0.6107 -0.935328,0 -1.70059,-0.2748 -1.70059,-0.6107 z m 5.782388,0 c 0,-0.3359 0.260205,-0.6108 0.57824,-0.6108 0.318028,0 0.578238,-1.09947 0.578238,-2.4432 0,-1.34376 -0.26021,-2.44319 -0.578238,-2.44319 -1.046258,0 -0.602911,-1.0723 0.578238,-1.39857 1.051161,-0.29037 1.156477,-0.0188 1.156477,2.98274 0,2.52812 0.203325,3.30222 0.867359,3.30222 0.477049,0 0.867358,0.2749 0.867358,0.6108 0,0.3359 -0.910725,0.6107 -2.023836,0.6107 -1.113111,0 -2.023836,-0.2748 -2.023836,-0.6107 z M 2.3421103,988.82972 c -1.75179282,-1.85043 -0.789794,-6.98053 1.3089911,-6.98053 1.6465299,0 2.4082582,1.28761 2.4082582,4.07084 0,1.95031 -0.2810765,2.76384 -1.1184631,3.23723 -1.4464981,0.81773 -1.5237885,0.80799 -2.5987862,-0.32754 z m 2.2716523,-3.06124 c 0,-1.71928 -0.2440087,-2.39229 -0.8673582,-2.39229 -0.9205811,0 -1.4956817,2.76624 -0.9101753,4.37795 0.6260285,1.72327 1.7775335,0.43692 1.7775335,-1.98566 z m 3.5590527,2.90408 c -1.8372211,-2.14442 -0.7293655,-6.82337 1.6155964,-6.82337 1.2744403,0 2.2825263,1.83275 2.2232423,4.04196 -0.09592,3.57423 -1.986197,4.94382 -3.8388387,2.78141 z m 2.7179977,-1.49731 c 0.49199,-2.07062 -0.195535,-4.19607 -1.2855835,-3.97433 -1.0846451,0.22065 -1.4821885,1.79159 -0.9839853,3.88835 0.4440331,1.86878 1.8334578,1.92142 2.2695688,0.086 z m 26.985731,1.71599 c -1.60521,-2.04307 -0.56805,-7.04205 1.461047,-7.04205 2.407873,0 3.506724,5.02565 1.515122,6.9295 -1.30447,1.247 -2.062324,1.27566 -2.976169,0.11255 z m 2.628213,-1.80197 c 0.498205,-2.09676 0.100659,-3.6677 -0.983986,-3.88835 -1.088132,-0.22135 -1.646651,1.49115 -1.232564,3.77925 0.361845,1.99946 1.751141,2.06784 2.21655,0.1091 z m 3.5738,2.04055 c -0.712563,-0.43839 -1.011914,-1.39056 -1.011914,-3.21864 0,-2.775 0.763028,-4.06199 2.408254,-4.06199 2.098789,0 3.060787,5.1301 1.308991,6.98053 -1.053264,1.11257 -1.334125,1.14373 -2.705331,0.3001 z m 2.168398,-3.36134 c 0,-1.71928 -0.244007,-2.39229 -0.867357,-2.39229 -0.920581,0 -1.49568,2.76624 -0.910175,4.37795 0.626027,1.72327 1.777532,0.43692 1.777532,-1.98566 z m 9.496094,3.04779 c -1.603469,-2.04084 -0.52876,-6.96708 1.519945,-6.96708 2.317448,0 3.347921,4.05606 1.672429,6.58285 -1.061772,1.60125 -2.134724,1.73038 -3.192374,0.38423 z m 2.688117,-1.73122 c 0.447049,-1.88147 -0.176679,-4.01426 -1.173951,-4.01426 -0.939097,0 -1.54664,2.30432 -1.091869,4.14128 0.446999,1.80558 1.824977,1.72833 2.26582,-0.12702 z m 3.572798,2.04477 c -0.712565,-0.43839 -1.011916,-1.39056 -1.011916,-3.21864 0,-2.775 0.763034,-4.06199 2.408262,-4.06199 2.098782,0 3.060781,5.1301 1.308985,6.98053 -1.053258,1.11257 -1.334125,1.14373 -2.705331,0.3001 z m 2.168398,-3.35299 c 0,-1.78478 -0.25432,-2.43566 -1.01192,-2.58976 -0.824301,-0.16768 -1.011916,0.23655 -1.011916,2.18032 0,1.31239 0.178894,2.57513 0.397539,2.80609 0.887989,0.93798 1.626297,-0.15005 1.626297,-2.39665 z m 3.510733,3.05289 c -1.751789,-1.85043 -0.789791,-6.98053 1.308991,-6.98053 1.646528,0 2.408262,1.28761 2.408262,4.07084 0,1.95031 -0.281077,2.76384 -1.118465,3.23723 -1.446498,0.81773 -1.523788,0.80799 -2.598788,-0.32754 z m 2.451869,-3.26256 c 0.15477,-2.23332 0.03231,-2.57081 -0.867359,-2.39049 -1.088538,0.21818 -1.716447,2.85413 -1.090389,4.57747 0.622112,1.71249 1.776911,0.42249 1.957748,-2.18698 z m 9.373704,3.3227 c -1.556138,-1.98059 -0.505323,-7.04067 1.462121,-7.04067 2.407873,0 3.506723,5.02565 1.515127,6.9295 -1.304858,1.24736 -2.062335,1.27565 -2.977248,0.11117 z m 2.629287,-1.80059 c 0.498488,-2.09794 0.100485,-3.66773 -0.985917,-3.88874 -1.002243,-0.20388 -1.536604,1.58404 -1.193442,3.99313 0.260452,1.8284 1.736925,1.75769 2.179359,-0.10439 z m 9.252932,1.74045 c -1.826045,-1.92886 -0.654364,-6.98053 1.619067,-6.98053 1.341009,0 2.098184,1.46905 2.098184,4.07084 0,1.95031 -0.281077,2.76384 -1.118465,3.23723 -1.446498,0.81773 -1.523787,0.80799 -2.598786,-0.32754 z m 2.560774,-3.05513 c 0,-2.33038 -0.167724,-2.75978 -1.011922,-2.59067 -1.817908,0.36417 -1.700046,5.38403 0.126417,5.38403 0.666094,0 0.885505,-0.69212 0.885505,-2.79336 z m -79.652399,2.98313 c 0.770136,-0.2126 1.011918,-0.92079 1.011918,-2.96396 0,-2.1354 -0.177448,-2.6127 -0.867358,-2.33306 -0.477047,0.19337 -0.867359,0.0767 -0.867359,-0.25922 0,-0.59954 1.31381,-1.35229 2.360248,-1.35229 0.292021,0 0.530947,1.48882 0.530947,3.30848 0,2.07528 0.269415,3.42331 0.722798,3.61656 0.39754,0.16945 -0.318031,0.29789 -1.590157,0.28545 -1.272125,-0.0124 -1.857592,-0.14834 -1.301037,-0.30196 z m 6.071508,0.0165 c 0.427132,-0.18206 0.722798,-1.42633 0.722798,-3.04181 0,-1.53167 -0.236691,-2.57921 -0.538284,-2.38232 -0.296056,0.19327 -0.684872,0.10085 -0.864037,-0.20535 -0.309622,-0.52919 0.88993,-1.29556 2.027852,-1.29556 0.292021,0 0.530947,1.49157 0.530947,3.31459 0,2.64315 0.204987,3.37118 1.011917,3.59393 0.556555,0.15363 -0.02891,0.28952 -1.301036,0.30197 -1.272126,0.0124 -1.987697,-0.11601 -1.590157,-0.28545 z m 5.782388,0 c 0.427133,-0.18206 0.722798,-1.42633 0.722798,-3.04181 0,-1.66695 -0.225646,-2.58642 -0.578238,-2.35623 -0.318033,0.2076 -0.57824,0.0864 -0.57824,-0.26936 0,-0.35577 0.108822,-0.64685 0.241827,-0.64685 0.133005,0 0.653419,-0.16683 1.156478,-0.37074 0.766134,-0.31054 0.91465,0.17808 0.91465,3.0092 0,2.70537 0.201956,3.43568 1.011919,3.65927 0.556555,0.15363 -0.02891,0.28952 -1.301038,0.30197 -1.272125,0.0124 -1.987696,-0.11601 -1.590156,-0.28545 z m 6.071507,-0.0165 c 0.776046,-0.21423 1.011918,-0.92481 1.011918,-3.04848 0,-2.21052 -0.174977,-2.69822 -0.867358,-2.41757 -0.477047,0.19336 -0.867359,0.11475 -0.867359,-0.17471 0,-0.6973 1.698068,-1.36379 2.365136,-0.9283 0.289335,0.18888 0.526059,1.67859 0.526059,3.31046 0,1.80212 0.283784,3.08799 0.722795,3.27511 0.397544,0.16945 -0.318028,0.29789 -1.590154,0.28545 -1.272125,-0.0124 -1.857593,-0.14834 -1.301037,-0.30196 z m 17.925399,0 c 0.776049,-0.21423 1.011922,-0.92481 1.011922,-3.04848 0,-2.21052 -0.174977,-2.69822 -0.867359,-2.41757 -0.477048,0.19336 -0.867358,0.11475 -0.867358,-0.17471 0,-0.6973 1.698067,-1.36379 2.365136,-0.9283 0.289335,0.18888 0.526058,1.67859 0.526058,3.31046 0,1.80212 0.283785,3.08799 0.722796,3.27511 0.397544,0.16945 -0.318028,0.29789 -1.590154,0.28545 -1.272126,-0.0124 -1.857593,-0.14834 -1.301041,-0.30196 z m 23.707795,0 c 0.776043,-0.21423 1.011921,-0.92481 1.011921,-3.04848 0,-2.21052 -0.174976,-2.69822 -0.867358,-2.41757 -0.477049,0.19336 -0.867358,0.11475 -0.867358,-0.17471 0,-0.6973 1.698067,-1.36379 2.365135,-0.9283 0.289335,0.18888 0.526059,1.67859 0.526059,3.31046 0,1.80212 0.283784,3.08799 0.722795,3.27511 0.397545,0.16945 -0.318028,0.29789 -1.590153,0.28545 -1.272126,-0.0124 -1.857593,-0.14834 -1.301041,-0.30196 z m 11.853896,0.0165 c 0.427137,-0.18206 0.722801,-1.42633 0.722801,-3.04181 0,-1.53167 -0.236692,-2.57921 -0.538283,-2.38232 -0.296058,0.19327 -0.701726,0.072 -0.901486,-0.26935 -0.199759,-0.34142 -0.108917,-0.62077 0.201876,-0.62077 0.310787,0 0.976658,-0.16683 1.479717,-0.37074 0.766137,-0.31054 0.914654,0.17808 0.914654,3.0092 0,2.70537 0.201955,3.43568 1.011915,3.65927 0.556558,0.15363 -0.02893,0.28952 -1.301035,0.30197 -1.272125,0.0124 -1.987698,-0.11601 -1.590159,-0.28545 z M 2.312336,976.58235 c -1.2500751,-1.32047 -0.9718827,-5.65552 0.4221508,-6.57835 1.6258974,-1.07633 3.0074027,0.27005 3.2100873,3.12847 0.1661035,2.34252 -0.8726213,4.44115 -2.1981697,4.44115 -0.2725981,0 -0.917929,-0.44607 -1.4340684,-0.99127 z m 2.4816409,-3.23111 c 0.1547713,-2.23333 0.032314,-2.57081 -0.8673582,-2.3905 -1.0885423,0.21818 -1.716448,2.85415 -1.0903896,4.57748 0.6221162,1.71249 1.7769086,0.42248 1.9577478,-2.18698 z m 3.5915902,3.01479 c -2.1100492,-2.22886 -1.0242291,-7.14561 1.4661623,-6.63901 2.4644936,0.50134 3.0497616,5.98294 0.7760336,7.26832 -0.8207325,0.46397 -1.3470305,0.31625 -2.2421959,-0.62931 z m 2.2761079,-1.47544 c 0.707717,-1.96624 0.11848,-4.1446 -1.0564455,-3.90559 -1.0846451,0.22065 -1.4821885,1.79159 -0.9839853,3.88835 0.4481435,1.88608 1.3649856,1.89382 2.0404308,0.0173 z m 3.956963,2.0168 c -0.52349,-0.30944 -1.125235,-1.39675 -1.337211,-2.41621 -0.83131,-3.99804 3.320822,-6.69276 4.558698,-2.95859 1.070839,3.23028 -1.00119,6.68731 -3.221487,5.3748 z m 2.178329,-2.03404 c 0.501843,-2.11208 0.09845,-3.66816 -1.009345,-3.89351 -1.171807,-0.23837 -1.81678,1.63714 -1.304473,3.79325 0.473066,1.99098 1.850393,2.05065 2.313818,0.10025 z m 3.573803,2.02382 c -1.196891,-0.71659 -1.423181,-5.36357 -0.318031,-6.53094 1.060691,-1.12041 2.66314,-0.8745 3.368083,0.51685 1.552621,3.06445 -0.666908,7.44091 -3.050052,6.01409 z m 2.168395,-3.33626 c 0,-1.78478 -0.254319,-2.43565 -1.011918,-2.58977 -0.824305,-0.16768 -1.011918,0.23655 -1.011918,2.18032 0,1.31239 0.178893,2.57514 0.397539,2.8061 0.887988,0.93799 1.626297,-0.15004 1.626297,-2.39665 z m 3.847951,3.03283 c -2.108052,-1.55967 -1.354027,-6.96047 0.971776,-6.96047 1.64653,0 2.408258,1.28761 2.408258,4.07085 0,3.17595 -1.38856,4.36304 -3.380034,2.88962 z m 2.114651,-3.2425 c 0.154772,-2.23333 0.03232,-2.57081 -0.867358,-2.3905 -1.088542,0.21818 -1.716448,2.85415 -1.09039,4.57748 0.622116,1.71249 1.77691,0.42248 1.957748,-2.18698 z m 3.591591,3.01479 c -1.273724,-1.34544 -1.514818,-3.68878 -0.571147,-5.55132 1.484742,-2.93047 5.061749,0.12052 4.320548,3.68519 -0.545043,2.6213 -2.237176,3.4635 -3.749401,1.86613 z m 2.549495,-1.59294 c 0.470875,-1.98174 -0.08125,-3.91823 -1.117151,-3.91823 -1.017897,0 -1.648933,2.11506 -1.197673,4.01426 0.464269,1.95395 1.84131,1.89682 2.314824,-0.096 z m 3.534603,1.97983 c -1.229154,-0.94939 -1.436123,-4.77648 -0.334158,-6.17903 1.123061,-1.42939 3.080925,-0.92273 3.704615,0.9587 1.117787,3.37189 -1.171984,6.9184 -3.370457,5.22033 z m 2.327301,-1.87957 c 0.498205,-2.09676 0.100659,-3.6677 -0.983986,-3.88835 -1.174926,-0.23901 -1.764162,1.93935 -1.056447,3.90559 0.675451,1.87658 1.592288,1.86884 2.040433,-0.0173 z m 9.514006,1.49268 c -2.11005,-2.22886 -1.024232,-7.14561 1.46616,-6.63901 2.464495,0.50134 3.049759,5.98294 0.776031,7.26832 -0.820729,0.46397 -1.347028,0.31625 -2.242191,-0.62931 z m 2.293347,-1.22306 c 0.8375,-1.65299 0.130735,-4.40298 -1.068869,-4.15895 -1.089044,0.22154 -1.487705,1.78963 -0.988804,3.88933 0.426009,1.79293 1.232349,1.89859 2.057673,0.26962 z m 9.616483,1.64343 c -1.356375,-1.04765 -1.100297,-5.81273 0.36449,-6.7824 1.730787,-1.14576 3.035757,0.26684 3.035757,3.28612 0,3.15287 -1.649267,4.84872 -3.400247,3.49628 z m 2.243769,-3.22549 c 0,-1.78478 -0.25432,-2.43565 -1.01192,-2.58977 -0.824301,-0.16768 -1.011916,0.23655 -1.011916,2.18032 0,1.31239 0.178894,2.57514 0.397539,2.8061 0.887989,0.93799 1.626297,-0.15004 1.626297,-2.39665 z m 3.847956,3.03283 c -2.108058,-1.55967 -1.354029,-6.96047 0.971768,-6.96047 1.646528,0 2.408262,1.28761 2.408262,4.07085 0,3.17595 -1.388563,4.36304 -3.38003,2.88962 z m 2.114646,-3.2425 c 0.15477,-2.23333 0.03231,-2.57081 -0.867359,-2.3905 -1.088538,0.21818 -1.716447,2.85415 -1.090389,4.57748 0.622112,1.71249 1.776911,0.42248 1.957748,-2.18698 z m 3.591593,3.01479 c -1.273729,-1.34544 -1.514819,-3.68878 -0.571152,-5.55132 1.484745,-2.93047 5.061752,0.12052 4.320558,3.68519 -0.54505,2.6213 -2.237183,3.4635 -3.749406,1.86613 z m 2.549494,-1.59294 c 0.470869,-1.98174 -0.08125,-3.91823 -1.117151,-3.91823 -1.017898,0 -1.648934,2.11506 -1.197673,4.01426 0.464268,1.95395 1.841309,1.89682 2.314824,-0.096 z m 3.563196,2.00191 c -1.245041,-0.96165 -1.483473,-4.77469 -0.385905,-6.17163 1.05876,-1.34756 2.770402,-1.21178 3.526079,0.27971 1.608201,3.17414 -0.802565,7.69747 -3.140174,5.89192 z m 2.298708,-1.90165 c 0.498205,-2.09676 0.100658,-3.6677 -0.983986,-3.88835 -1.174926,-0.23901 -1.764162,1.93935 -1.056447,3.90559 0.675444,1.87658 1.592287,1.86884 2.040433,-0.0173 z m 9.590153,1.72039 c -2.108058,-1.55967 -1.354028,-6.96047 0.971769,-6.96047 1.646528,0 2.408261,1.28761 2.408261,4.07085 0,3.17595 -1.388562,4.36304 -3.38003,2.88962 z m 2.114646,-3.2425 c 0.154771,-2.23333 0.03232,-2.57081 -0.867358,-2.3905 -1.088538,0.21818 -1.716447,2.85415 -1.090388,4.57748 0.62211,1.71249 1.776911,0.42248 1.957746,-2.18698 z m -49.764197,3.20706 c 0.425115,-0.18119 0.722802,-1.41911 0.722802,-3.00575 0,-2.15847 -0.202263,-2.69955 -1.011921,-2.70704 -0.86478,-0.008 -0.885801,-0.0954 -0.144557,-0.60144 1.831633,-1.25034 2.312955,-0.68769 2.312955,2.7038 0,2.64314 0.20499,3.37117 1.011916,3.59392 0.556558,0.15362 -0.02893,0.28951 -1.301035,0.30196 -1.272126,0.0124 -1.987698,-0.116 -1.59016,-0.28545 z m 11.853896,-0.0165 c 1.38501,-0.38232 1.488019,-5.68692 0.110436,-5.68692 -0.495818,0 -0.74067,-0.27486 -0.544112,-0.6108 0.196552,-0.33594 0.862429,-0.61079 1.479724,-0.61079 0.972841,0 1.12235,0.44073 1.12235,3.30848 0,2.07528 0.269414,3.42331 0.722797,3.61655 0.397545,0.16944 -0.318028,0.2979 -1.590155,0.28545 -1.272125,-0.0124 -1.857593,-0.14834 -1.30104,-0.30197 z m 29.779302,0.0165 c 0.425115,-0.18119 0.722801,-1.41911 0.722801,-3.00575 0,-2.15847 -0.202269,-2.69955 -1.01192,-2.70704 -0.864781,-0.008 -0.885801,-0.0954 -0.144558,-0.60144 1.831632,-1.25034 2.312956,-0.68769 2.312956,2.7038 0,2.64314 0.204983,3.37117 1.011915,3.59392 0.556558,0.15362 -0.02893,0.28951 -1.301035,0.30196 -1.272125,0.0124 -1.987698,-0.116 -1.590159,-0.28545 z M 2.0116883,964.1361 c 0,-0.33594 0.2602074,-0.61079 0.5782388,-0.61079 0.3180313,0 0.5782384,-1.09943 0.5782384,-2.44318 0,-1.80564 -0.235245,-2.44319 -0.9014834,-2.44319 -0.4958168,0 -0.7406676,-0.27487 -0.5441133,-0.6108 0.1965545,-0.33594 0.8624295,-0.61079 1.4797224,-0.61079 0.9613296,0 1.122352,0.43814 1.122352,3.05398 0,2.30745 0.2120209,3.05398 0.8673582,3.05398 0.4770473,0 0.8673582,0.27485 0.8673582,0.61079 0,0.33594 -0.9107258,0.6108 -2.0238358,0.6108 -1.1131091,0 -2.0238355,-0.27486 -2.0238355,-0.6108 z m 5.8212786,-0.53403 c -1.375055,-2.71398 -0.2814707,-6.18472 1.9487237,-6.18472 1.6736204,0 2.7704824,2.74094 2.1250584,5.3103 -0.54926,2.18654 -3.1284903,2.74016 -4.0737821,0.87442 z m 2.8287081,-0.92741 c 0.707717,-1.96624 0.11848,-4.14459 -1.0564455,-3.90558 -1.0846451,0.22064 -1.4821885,1.79158 -0.9839853,3.88834 0.4481435,1.88608 1.3649856,1.89383 2.0404308,0.0173 z m 2.873629,0.43309 c -0.384455,-1.06675 -0.431254,-2.4163 -0.123199,-3.55262 0.406981,-1.50121 0.803851,-1.83239 2.195911,-1.83239 2.088505,0 3.148106,2.36084 2.26166,5.03907 -0.821393,2.48169 -3.487961,2.69452 -4.334372,0.34594 z m 3.39556,-2.274 c -0.11068,-1.19488 -0.53513,-1.95163 -1.165346,-2.07769 -1.288711,-0.25779 -1.945969,2.35567 -1.04142,4.141 0.949528,1.8741 2.442208,0.47846 2.206766,-2.06331 z m 3.006227,3.30235 c 0,-0.33594 0.260207,-0.61079 0.578238,-0.61079 0.318032,0 0.578239,-1.09943 0.578239,-2.44318 0,-1.80564 -0.235245,-2.44319 -0.901484,-2.44319 -0.495816,0 -0.740668,-0.27487 -0.544113,-0.6108 0.196554,-0.33594 0.86243,-0.61079 1.479722,-0.61079 0.949711,0 1.122353,0.43592 1.122353,2.83394 0,1.9827 0.303958,3.07768 1.011917,3.64536 0.89921,0.72102 0.770401,0.81356 -1.156477,0.83082 -1.192618,0.0107 -2.168395,-0.25543 -2.168395,-0.59137 z m 5.782387,0 c 0,-0.33594 0.260207,-0.61079 0.57824,-0.61079 0.318031,0 0.578238,-1.09943 0.578238,-2.44318 0,-1.34376 -0.260207,-2.44319 -0.578238,-2.44319 -0.318033,0 -0.57824,-0.27487 -0.57824,-0.6108 0,-0.33594 0.520416,-0.61079 1.156478,-0.61079 1.002281,0 1.156477,0.4072 1.156477,3.05398 0,2.30745 0.212021,3.05398 0.867359,3.05398 0.477048,0 0.867358,0.27485 0.867358,0.61079 0,0.33594 -0.910726,0.6108 -2.023836,0.6108 -1.113109,0 -2.023836,-0.27486 -2.023836,-0.6108 z m 5.782388,0 c 0,-0.33594 0.390312,-0.61079 0.867359,-0.61079 0.626422,0 0.867358,-0.67867 0.867358,-2.44318 0,-1.76453 -0.240936,-2.44319 -0.867358,-2.44319 -0.477047,0 -0.867359,-0.27487 -0.867359,-0.6108 0,-0.33594 0.650519,-0.61079 1.445598,-0.61079 1.349223,0 1.445597,0.2036 1.445597,3.05398 0,1.67969 0.260204,3.05398 0.578238,3.05398 0.318029,0 0.578239,0.27485 0.578239,0.61079 0,0.33594 -0.910725,0.6108 -2.023836,0.6108 -1.113109,0 -2.023836,-0.27486 -2.023836,-0.6108 z m 6.505184,-0.23945 c 1.33191,-1.068 1.419914,-5.25771 0.110436,-5.25771 -0.495817,0 -0.740664,-0.27487 -0.544112,-0.6108 0.196552,-0.33594 0.86243,-0.61079 1.479723,-0.61079 0.949712,0 1.122351,0.43592 1.122351,2.83394 0,1.9827 0.303959,3.07768 1.011915,3.64536 0.888977,0.71282 0.69578,0.81141 -1.590153,0.81141 -2.285934,0 -2.479131,-0.0986 -1.59016,-0.81141 z m 5.314578,-0.60293 c -0.891647,-3.75266 0.890076,-6.94825 3.069884,-5.50599 1.217244,0.80538 1.673445,4.83303 0.68931,6.08561 -1.127698,1.43529 -3.362302,1.09074 -3.759194,-0.57962 z m 3.103135,-2.10637 c 0.155302,-2.22581 0.0272,-2.54841 -1.01192,-2.54841 -0.993899,0 -1.189723,0.38538 -1.189723,2.34138 0,4.1273 1.915553,4.30742 2.201643,0.20703 z m 3.002506,2.94875 c 0,-0.33594 0.39031,-0.61079 0.867358,-0.61079 0.626423,0 0.867359,-0.67867 0.867359,-2.44318 0,-1.76453 -0.240936,-2.44319 -0.867359,-2.44319 -0.477048,0 -0.867358,-0.27487 -0.867358,-0.6108 0,-0.33594 0.650521,-0.61079 1.445598,-0.61079 1.349224,0 1.445596,0.2036 1.445596,3.05398 0,1.67969 0.260204,3.05398 0.578239,3.05398 0.318029,0 0.578239,0.27485 0.578239,0.61079 0,0.33594 -0.910725,0.6108 -2.023836,0.6108 -1.113111,0 -2.023836,-0.27486 -2.023836,-0.6108 z m 6.505184,-0.23945 c 1.33191,-1.068 1.419913,-5.25771 0.110436,-5.25771 -0.495818,0 -0.74067,-0.27487 -0.544112,-0.6108 0.196552,-0.33594 0.862429,-0.61079 1.479724,-0.61079 0.961325,0 1.12235,0.43814 1.12235,3.05398 0,1.67969 0.260204,3.05398 0.57824,3.05398 0.31803,0 0.57824,0.27485 0.57824,0.61079 0,0.33594 -0.975779,0.60206 -2.1684,0.59137 -1.926878,-0.0173 -2.055687,-0.1098 -1.156478,-0.83082 z m 5.637833,0.23945 c 0,-0.33594 0.260206,-0.61079 0.57824,-0.61079 0.318029,0 0.578239,-1.09943 0.578239,-2.44318 0,-1.80564 -0.235243,-2.44319 -0.901484,-2.44319 -0.49582,0 -0.740672,-0.27487 -0.544114,-0.6108 0.196552,-0.33594 0.862431,-0.61079 1.479725,-0.61079 0.949712,0 1.122351,0.43592 1.122351,2.83394 0,1.9827 0.303959,3.07768 1.011914,3.64536 0.89921,0.72102 0.7704,0.81356 -1.156477,0.83082 -1.192615,0.0107 -2.168394,-0.25543 -2.168394,-0.59137 z m 5.815881,-0.26276 c -0.98414,-1.25258 -0.527934,-5.28023 0.689304,-6.08561 2.179816,-1.44226 3.961537,1.75333 3.06989,5.50599 -0.396891,1.67036 -2.631495,2.01491 -3.759194,0.57962 z m 2.748797,-2.73802 c 0.15477,-2.23332 0.03231,-2.57082 -0.867359,-2.39049 -1.088538,0.21817 -1.716447,2.85413 -1.090389,4.57746 0.622112,1.7125 1.776911,0.42249 1.957748,-2.18697 z m 3.722895,2.76133 c 1.306512,-1.04763 1.422264,-5.25771 0.144563,-5.25771 -0.477049,0 -0.867358,-0.27487 -0.867358,-0.6108 0,-0.33594 0.65052,-0.61079 1.445597,-0.61079 1.349223,0 1.445597,0.2036 1.445597,3.05398 0,1.67969 0.260204,3.05398 0.578238,3.05398 0.318028,0 0.57824,0.27485 0.57824,0.61079 0,0.33594 -0.975778,0.60206 -2.1684,0.59137 -1.926876,-0.0173 -2.055679,-0.1098 -1.156477,-0.83082 z m 5.782389,0 c 1.33191,-1.068 1.419913,-5.25771 0.110435,-5.25771 -0.495817,0 -0.74067,-0.27487 -0.544111,-0.6108 0.196551,-0.33594 0.862429,-0.61079 1.479723,-0.61079 0.949712,0 1.122351,0.43592 1.122351,2.83394 0,1.9827 0.303959,3.07768 1.011914,3.64536 0.888978,0.71282 0.695781,0.81141 -1.590153,0.81141 -2.285934,0 -2.479131,-0.0986 -1.590159,-0.81141 z m 5.671322,-0.0234 c -0.98414,-1.25257 -0.527934,-5.28021 0.689304,-6.0856 1.570349,-1.03901 3.003856,0.27115 3.21763,2.94078 0.199752,2.49463 -0.63665,4.01839 -2.205709,4.01839 -0.558181,0 -1.323732,-0.3931 -1.701225,-0.87356 z m 2.74639,-2.68598 c 0.155296,-2.2258 0.0272,-2.54841 -1.011914,-2.54841 -0.993904,0 -1.189728,0.38539 -1.189728,2.34139 0,4.12729 1.915546,4.30741 2.201642,0.20702 z m 3.143005,2.85285 c -1.599843,-1.68992 -0.450002,-6.62285 1.543758,-6.62285 1.671361,0 2.449667,1.51338 2.254189,4.38313 -0.156906,2.30351 -0.365158,2.66389 -1.629549,2.81997 -0.797315,0.0984 -1.773092,-0.16269 -2.168398,-0.58025 z m 2.641789,-2.90488 c 0.154437,-2.2285 0.03134,-2.57017 -0.860721,-2.3887 -1.193454,0.24278 -1.607288,1.75223 -1.084086,3.9542 0.550971,2.31885 1.742063,1.36007 1.944807,-1.5655 z"
       style="fill:#000000" />
  </g>
</svg>
